# xmcd
#
# Track frame offsets: 
#        150
#        23503
#        54135
#        91303
#        114843
#        183659
#        206433
#        239884
#        259803
#
# Disc length: 3566 seconds
#
# Revision: 0
# Processed by: cddbd v1.5.2PL0 Copyright (c) Steve Scherf et al.
# Submitted via: ExactAudioCopyFreeDBPlugin 1.0
#
DISCID=700dec09
DTITLE=Junior Wells - Sexy Bitch -5- Pushin' and Shovin'
DYEAR=2018
DGENRE=Blues
TTITLE0=Everything Is Gonna Be Alright
TTITLE1=Driving Wheel
TTITLE2=Who's Making Love
TTITLE3=Messin' With The Kid
TTITLE4=Ships On The Ocean - Champagne and Reefer
TTITLE5=Trouble No More
TTITLE6=What My Momma Told Me
TTITLE7=I Go A Bag Of My Own
TTITLE8=I Got You (I Feel Good)
EXTD=
EXTT0=
EXTT1=
EXTT2=
EXTT3=
EXTT4=
EXTT5=
EXTT6=
EXTT7=
EXTT8=
PLAYORDER=
